<?xml version="1.0" encoding="utf-8"?>
<!-- Generator: Adobe Illustrator 28.3.0, SVG Export Plug-In . SVG Version: 6.00 Build 0)  -->
<svg version="1.1" id="Layer_1" xmlns="http://www.w3.org/2000/svg" xmlns:xlink="http://www.w3.org/1999/xlink" x="0px" y="0px"
	 viewBox="0 0 293.4 74.49" style="enable-background:new 0 0 293.4 74.49;" xml:space="preserve">
<style type="text/css">
	.st0{enable-background:new    ;}
	.st1{fill:#EA2A46;}
	.st2{fill:#F4F4F4;}
</style>
<g class="st0">
	<path class="st1" d="M18.98,28.27V15.28c0-3.23-0.99-3.94-2.87-3.94c-1.97,0-2.96,0.72-2.96,3.94v43.19c0,3.23,0.99,3.94,2.96,3.94
		c1.88,0,2.87-0.72,2.87-3.94v-13.8h9.5v14.61c0,8.33-6.54,10.75-12.46,10.75c-5.82,0-12.37-2.42-12.37-10.75V14.47
		c0-8.33,6.54-10.75,12.37-10.75c5.91,0,12.46,2.42,12.46,10.75v13.8H18.98z"/>
	<path class="st1" d="M33.68,68.78V4.97h9.5v63.81H33.68z"/>
	<path class="st1" d="M62.98,4.97l2.69,18.37c2.15,11.83,3.67,24.11,4.48,36.11h0.36v-3.41c0.09-6.18-0.27-12.46-0.27-18.64V4.97
		h7.8v63.81H63.96l-4.48-31.9c-1.52-7.89-2.06-15.05-2.87-22.58h-0.36c0,2.78,0.18,5.56,0.27,8.25v46.24h-7.8V4.97H62.98z"/>
	<path class="st1" d="M83.59,68.78V4.97h21.15v8.33H93.09v16.4h11.2v8.33h-11.2v22.4h11.83v8.33H83.59z"/>
</g>
<g class="st0">
	<path class="st2" d="M127.76,4.97v6.99l-11.11,48.48h11.2v8.33H106.7v-6.63l11.02-48.84h-10.84V4.97H127.76z"/>
	<path class="st2" d="M136.72,4.97h14.25l7.26,63.81h-9.59l-1.79-17.3h-6.72l-2.06,17.3h-8.6L136.72,4.97z M145.95,43.15
		l-1.97-26.53h-0.63l-2.33,26.53H145.95z"/>
	<path class="st2" d="M186.1,31.23c0,8.78-4.03,13.08-11.38,13.08h-3.94v24.46h-9.5V4.97h9.95c9.86,0,14.88,3.14,14.88,12.46V31.23z
		 M170.77,36.69c2.78,0,5.83,0,5.83-2.87V18.68c0-4.39-0.9-6.09-4.12-6.09h-1.7V36.69z"/>
	<path class="st2" d="M191.29,68.78V4.97h9.5v63.81H191.29z"/>
	<path class="st2" d="M206.35,68.78V4.97h21.15v8.33h-11.65v16.4h11.2v8.33h-11.2v22.4h11.83v8.33H206.35z"/>
	<path class="st2" d="M245.51,4.97l2.69,18.37c2.15,11.83,3.67,24.11,4.48,36.11h0.36v-3.41c0.09-6.18-0.27-12.46-0.27-18.64V4.97
		h7.8v63.81h-14.07l-4.48-31.9c-1.52-7.89-2.06-15.05-2.87-22.58h-0.36c0,2.78,0.18,5.56,0.27,8.25v46.24h-7.8V4.97H245.51z"/>
	<path class="st2" d="M275.34,58.47c0,3.23,0.99,3.94,2.96,3.94c1.88,0,2.87-0.72,2.87-3.94v-6.72c0-8.96-15.32-17.74-15.32-28.14
		v-9.14c0-8.33,6.54-10.75,12.37-10.75c5.92,0,12.46,2.42,12.46,10.75v13.44h-9.5V15.28c0-3.23-0.99-3.94-2.87-3.94
		c-1.97,0-2.96,0.72-2.96,3.94v7.89c0,4.57,15.32,18.37,15.32,24.82v11.29c0,8.33-6.54,10.75-12.46,10.75
		c-5.82,0-12.37-2.42-12.37-10.75v-14.7h9.5V58.47z"/>
</g>
</svg>
